<svg width="181" height="60" viewBox="0 0 181 60" fill="none" xmlns="http://www.w3.org/2000/svg">
<circle cx="20" cy="30" r="20" fill="#7253A4"/>
<path d="M15.3047 38H12.2773V26.2422H8.40039V23.7227H19.1816V26.2422H15.3047V38ZM25.9395 23.7227C27.7819 23.7227 29.1263 24.1198 29.9727 24.9141C30.819 25.7018 31.2422 26.7891 31.2422 28.1758C31.2422 28.8008 31.1478 29.3997 30.959 29.9727C30.7702 30.5391 30.4609 31.0436 30.0312 31.4863C29.6081 31.929 29.0417 32.2806 28.332 32.541C27.6224 32.7949 26.7467 32.9219 25.7051 32.9219H24.4062V38H21.3789V23.7227H25.9395ZM25.7832 26.2031H24.4062V30.4414H25.4023C25.9688 30.4414 26.4603 30.3665 26.877 30.2168C27.2936 30.0671 27.6159 29.8327 27.8438 29.5137C28.0716 29.1947 28.1855 28.7845 28.1855 28.2832C28.1855 27.5801 27.9902 27.0592 27.5996 26.7207C27.209 26.3757 26.6035 26.2031 25.7832 26.2031Z" fill="white"/>
<path opacity="0.9" d="M54.3047 38H51.2773V26.2422H47.4004V23.7227H58.1816V26.2422H54.3047V38ZM64.6465 26.877C65.6556 26.877 66.5247 27.0723 67.2539 27.4629C67.9831 27.847 68.5462 28.4069 68.9434 29.1426C69.3405 29.8783 69.5391 30.7767 69.5391 31.8379V33.2832H62.498C62.5306 34.123 62.7812 34.7839 63.25 35.2656C63.7253 35.7409 64.3828 35.9785 65.2227 35.9785C65.9193 35.9785 66.5573 35.9069 67.1367 35.7637C67.7161 35.6204 68.3118 35.4056 68.9238 35.1191V37.4238C68.3835 37.6908 67.8171 37.8861 67.2246 38.0098C66.6387 38.1335 65.9258 38.1953 65.0859 38.1953C63.9922 38.1953 63.0221 37.9935 62.1758 37.5898C61.3359 37.1862 60.6751 36.571 60.1934 35.7441C59.7181 34.9173 59.4805 33.8757 59.4805 32.6191C59.4805 31.3431 59.6953 30.2819 60.125 29.4355C60.5612 28.5827 61.1667 27.9447 61.9414 27.5215C62.7161 27.0918 63.6178 26.877 64.6465 26.877ZM64.666 28.9961C64.0866 28.9961 63.6048 29.1816 63.2207 29.5527C62.8431 29.9238 62.625 30.5065 62.5664 31.3008H66.7461C66.7396 30.8581 66.6582 30.4642 66.502 30.1191C66.3522 29.7741 66.1243 29.5007 65.8184 29.2988C65.5189 29.097 65.1348 28.9961 64.666 28.9961ZM76.3945 38.1953C75.3138 38.1953 74.3926 38 73.6309 37.6094C72.8691 37.2122 72.2897 36.6003 71.8926 35.7734C71.4954 34.9466 71.2969 33.8887 71.2969 32.5996C71.2969 31.265 71.5215 30.1777 71.9707 29.3379C72.4264 28.4915 73.0547 27.8698 73.8555 27.4727C74.6628 27.0755 75.597 26.877 76.6582 26.877C77.4134 26.877 78.0645 26.9518 78.6113 27.1016C79.1647 27.2448 79.6465 27.4173 80.0566 27.6191L79.1777 29.9238C78.709 29.735 78.2728 29.582 77.8691 29.4648C77.4655 29.3411 77.0618 29.2793 76.6582 29.2793C76.1374 29.2793 75.7044 29.403 75.3594 29.6504C75.0143 29.8913 74.7572 30.2559 74.5879 30.7441C74.4186 31.2324 74.334 31.8444 74.334 32.5801C74.334 33.3027 74.4251 33.9017 74.6074 34.377C74.7897 34.8522 75.0534 35.207 75.3984 35.4414C75.7435 35.6693 76.1634 35.7832 76.6582 35.7832C77.2767 35.7832 77.8268 35.7018 78.3086 35.5391C78.7904 35.3698 79.2591 35.1354 79.7148 34.8359V37.3848C79.2591 37.6712 78.7806 37.8763 78.2793 38C77.7845 38.1302 77.1562 38.1953 76.3945 38.1953ZM85.2324 22.8047V25.9004C85.2324 26.4408 85.2129 26.9551 85.1738 27.4434C85.1413 27.9316 85.1152 28.2767 85.0957 28.4785H85.252C85.4863 28.1009 85.763 27.7949 86.082 27.5605C86.4076 27.3262 86.7656 27.1536 87.1562 27.043C87.5469 26.9323 87.9668 26.877 88.416 26.877C89.2038 26.877 89.8906 27.0169 90.4766 27.2969C91.0625 27.5703 91.5182 28.0033 91.8438 28.5957C92.1693 29.1816 92.332 29.9434 92.332 30.8809V38H89.3535V31.623C89.3535 30.8418 89.2103 30.2526 88.9238 29.8555C88.6374 29.4583 88.1947 29.2598 87.5957 29.2598C86.9967 29.2598 86.5247 29.3997 86.1797 29.6797C85.8346 29.9531 85.5905 30.36 85.4473 30.9004C85.304 31.4342 85.2324 32.0885 85.2324 32.8633V38H82.2539V22.8047H85.2324ZM94.4316 33.8594V31.418H99.6758V33.8594H94.4316ZM106.639 23.7227C108.481 23.7227 109.826 24.1198 110.672 24.9141C111.518 25.7018 111.941 26.7891 111.941 28.1758C111.941 28.8008 111.847 29.3997 111.658 29.9727C111.469 30.5391 111.16 31.0436 110.73 31.4863C110.307 31.929 109.741 32.2806 109.031 32.541C108.322 32.7949 107.446 32.9219 106.404 32.9219H105.105V38H102.078V23.7227H106.639ZM106.482 26.2031H105.105V30.4414H106.102C106.668 30.4414 107.16 30.3665 107.576 30.2168C107.993 30.0671 108.315 29.8327 108.543 29.5137C108.771 29.1947 108.885 28.7845 108.885 28.2832C108.885 27.5801 108.689 27.0592 108.299 26.7207C107.908 26.3757 107.303 26.2031 106.482 26.2031ZM118.875 26.8574C120.34 26.8574 121.463 27.1764 122.244 27.8145C123.025 28.4525 123.416 29.4225 123.416 30.7246V38H121.336L120.76 36.5156H120.682C120.369 36.9062 120.05 37.2253 119.725 37.4727C119.399 37.7201 119.025 37.9023 118.602 38.0195C118.178 38.1367 117.664 38.1953 117.059 38.1953C116.414 38.1953 115.835 38.0716 115.32 37.8242C114.812 37.5768 114.412 37.1992 114.119 36.6914C113.826 36.1771 113.68 35.526 113.68 34.7383C113.68 33.5794 114.087 32.7266 114.9 32.1797C115.714 31.6263 116.935 31.3203 118.562 31.2617L120.457 31.2031V30.7246C120.457 30.1517 120.307 29.7318 120.008 29.4648C119.708 29.1979 119.292 29.0645 118.758 29.0645C118.23 29.0645 117.713 29.1393 117.205 29.2891C116.697 29.4388 116.189 29.6276 115.682 29.8555L114.695 27.8438C115.275 27.5378 115.923 27.2969 116.639 27.1211C117.361 26.9453 118.107 26.8574 118.875 26.8574ZM120.457 32.9414L119.305 32.9805C118.341 33.0065 117.671 33.179 117.293 33.498C116.922 33.8171 116.736 34.237 116.736 34.7578C116.736 35.2135 116.87 35.5391 117.137 35.7344C117.404 35.9232 117.752 36.0176 118.182 36.0176C118.82 36.0176 119.357 35.8288 119.793 35.4512C120.236 35.0736 120.457 34.5365 120.457 33.8398V32.9414ZM131.092 35.8223C131.417 35.8223 131.733 35.7897 132.039 35.7246C132.352 35.6595 132.661 35.5781 132.967 35.4805V37.6973C132.648 37.8405 132.251 37.9577 131.775 38.0488C131.307 38.1465 130.792 38.1953 130.232 38.1953C129.581 38.1953 128.995 38.0911 128.475 37.8828C127.96 37.668 127.553 37.3001 127.254 36.7793C126.961 36.252 126.814 35.5195 126.814 34.582V29.3184H125.389V28.0586L127.029 27.0625L127.889 24.7578H129.793V27.082H132.85V29.3184H129.793V34.582C129.793 34.9987 129.91 35.3112 130.145 35.5195C130.385 35.7214 130.701 35.8223 131.092 35.8223ZM138.162 22.8047V25.9004C138.162 26.4408 138.143 26.9551 138.104 27.4434C138.071 27.9316 138.045 28.2767 138.025 28.4785H138.182C138.416 28.1009 138.693 27.7949 139.012 27.5605C139.337 27.3262 139.695 27.1536 140.086 27.043C140.477 26.9323 140.896 26.877 141.346 26.877C142.133 26.877 142.82 27.0169 143.406 27.2969C143.992 27.5703 144.448 28.0033 144.773 28.5957C145.099 29.1816 145.262 29.9434 145.262 30.8809V38H142.283V31.623C142.283 30.8418 142.14 30.2526 141.854 29.8555C141.567 29.4583 141.124 29.2598 140.525 29.2598C139.926 29.2598 139.454 29.3997 139.109 29.6797C138.764 29.9531 138.52 30.36 138.377 30.9004C138.234 31.4342 138.162 32.0885 138.162 32.8633V38H135.184V22.8047H138.162Z" fill="#7253A4"/>
</svg>
