<svg width="145" height="40" viewBox="0 0 145 40" fill="none" xmlns="http://www.w3.org/2000/svg">
<circle cx="20" cy="20" r="20" fill="#7253A4"/>
<path d="M9.79688 28V13.7227H12.8242V25.5H18.6152V28H9.79688ZM25.666 13.7227C27.5085 13.7227 28.8529 14.1198 29.6992 14.9141C30.5456 15.7018 30.9688 16.7891 30.9688 18.1758C30.9688 18.8008 30.8743 19.3997 30.6855 19.9727C30.4967 20.5391 30.1875 21.0436 29.7578 21.4863C29.3346 21.929 28.7682 22.2806 28.0586 22.541C27.349 22.7949 26.4733 22.9219 25.4316 22.9219H24.1328V28H21.1055V13.7227H25.666ZM25.5098 16.2031H24.1328V20.4414H25.1289C25.6953 20.4414 26.1868 20.3665 26.6035 20.2168C27.0202 20.0671 27.3424 19.8327 27.5703 19.5137C27.7982 19.1947 27.9121 18.7845 27.9121 18.2832C27.9121 17.5801 27.7168 17.0592 27.3262 16.7207C26.9355 16.3757 26.3301 16.2031 25.5098 16.2031Z" fill="white"/>
<path opacity="0.9" d="M48.7969 28V13.7227H51.8242V25.5H57.6152V28H48.7969ZM64.373 16.877C65.3822 16.877 66.2513 17.0723 66.9805 17.4629C67.7096 17.847 68.2728 18.4069 68.6699 19.1426C69.0671 19.8783 69.2656 20.7767 69.2656 21.8379V23.2832H62.2246C62.2572 24.123 62.5078 24.7839 62.9766 25.2656C63.4518 25.7409 64.1094 25.9785 64.9492 25.9785C65.6458 25.9785 66.2839 25.9069 66.8633 25.7637C67.4427 25.6204 68.0384 25.4056 68.6504 25.1191V27.4238C68.11 27.6908 67.5436 27.8861 66.9512 28.0098C66.3652 28.1335 65.6523 28.1953 64.8125 28.1953C63.7188 28.1953 62.7487 27.9935 61.9023 27.5898C61.0625 27.1862 60.4017 26.571 59.9199 25.7441C59.4447 24.9173 59.207 23.8757 59.207 22.6191C59.207 21.3431 59.4219 20.2819 59.8516 19.4355C60.2878 18.5827 60.8932 17.9447 61.668 17.5215C62.4427 17.0918 63.3444 16.877 64.373 16.877ZM64.3926 18.9961C63.8132 18.9961 63.3314 19.1816 62.9473 19.5527C62.5697 19.9238 62.3516 20.5065 62.293 21.3008H66.4727C66.4661 20.8581 66.3848 20.4642 66.2285 20.1191C66.0788 19.7741 65.8509 19.5007 65.5449 19.2988C65.2454 19.097 64.8613 18.9961 64.3926 18.9961ZM76.1602 16.8574C77.625 16.8574 78.748 17.1764 79.5293 17.8145C80.3105 18.4525 80.7012 19.4225 80.7012 20.7246V28H78.6211L78.0449 26.5156H77.9668C77.6543 26.9062 77.3353 27.2253 77.0098 27.4727C76.6842 27.7201 76.3099 27.9023 75.8867 28.0195C75.4635 28.1367 74.9492 28.1953 74.3438 28.1953C73.6992 28.1953 73.1198 28.0716 72.6055 27.8242C72.0977 27.5768 71.6973 27.1992 71.4043 26.6914C71.1113 26.1771 70.9648 25.526 70.9648 24.7383C70.9648 23.5794 71.3717 22.7266 72.1855 22.1797C72.9993 21.6263 74.2201 21.3203 75.8477 21.2617L77.7422 21.2031V20.7246C77.7422 20.1517 77.5924 19.7318 77.293 19.4648C76.9935 19.1979 76.5768 19.0645 76.043 19.0645C75.5156 19.0645 74.998 19.1393 74.4902 19.2891C73.9824 19.4388 73.4746 19.6276 72.9668 19.8555L71.9805 17.8438C72.5599 17.5378 73.2077 17.2969 73.9238 17.1211C74.6465 16.9453 75.3919 16.8574 76.1602 16.8574ZM77.7422 22.9414L76.5898 22.9805C75.6263 23.0065 74.9557 23.179 74.5781 23.498C74.207 23.8171 74.0215 24.237 74.0215 24.7578C74.0215 25.2135 74.1549 25.5391 74.4219 25.7344C74.6888 25.9232 75.0371 26.0176 75.4668 26.0176C76.1048 26.0176 76.6419 25.8288 77.0781 25.4512C77.5208 25.0736 77.7422 24.5365 77.7422 23.8398V22.9414ZM89.8711 16.877C90.0208 16.877 90.1934 16.8867 90.3887 16.9062C90.5905 16.9193 90.7533 16.9388 90.877 16.9648L90.6523 19.7578C90.5547 19.7253 90.4147 19.7025 90.2324 19.6895C90.0566 19.6699 89.9036 19.6602 89.7734 19.6602C89.3893 19.6602 89.015 19.709 88.6504 19.8066C88.2923 19.9043 87.9701 20.0638 87.6836 20.2852C87.3971 20.5 87.1693 20.7865 87 21.1445C86.8372 21.4961 86.7559 21.929 86.7559 22.4434V28H83.7773V17.082H86.0332L86.4727 18.918H86.6191C86.834 18.5469 87.1009 18.2083 87.4199 17.9023C87.7454 17.5898 88.1133 17.3424 88.5234 17.1602C88.9401 16.9714 89.3893 16.877 89.8711 16.877ZM99.0605 16.877C100.226 16.877 101.163 17.196 101.873 17.834C102.583 18.4655 102.938 19.4811 102.938 20.8809V28H99.959V21.623C99.959 20.8418 99.8158 20.2526 99.5293 19.8555C99.2493 19.4583 98.8066 19.2598 98.2012 19.2598C97.2897 19.2598 96.668 19.569 96.3359 20.1875C96.0039 20.806 95.8379 21.6979 95.8379 22.8633V28H92.8594V17.082H95.1348L95.5352 18.4785H95.7012C95.9355 18.1009 96.2253 17.7949 96.5703 17.5605C96.9219 17.3262 97.3092 17.1536 97.7324 17.043C98.1621 16.9323 98.6048 16.877 99.0605 16.877ZM105.037 23.8594V21.418H110.281V23.8594H105.037ZM117.244 13.7227C119.087 13.7227 120.431 14.1198 121.277 14.9141C122.124 15.7018 122.547 16.7891 122.547 18.1758C122.547 18.8008 122.452 19.3997 122.264 19.9727C122.075 20.5391 121.766 21.0436 121.336 21.4863C120.913 21.929 120.346 22.2806 119.637 22.541C118.927 22.7949 118.051 22.9219 117.01 22.9219H115.711V28H112.684V13.7227H117.244ZM117.088 16.2031H115.711V20.4414H116.707C117.273 20.4414 117.765 20.3665 118.182 20.2168C118.598 20.0671 118.921 19.8327 119.148 19.5137C119.376 19.1947 119.49 18.7845 119.49 18.2832C119.49 17.5801 119.295 17.0592 118.904 16.7207C118.514 16.3757 117.908 16.2031 117.088 16.2031ZM131.102 16.877C131.251 16.877 131.424 16.8867 131.619 16.9062C131.821 16.9193 131.984 16.9388 132.107 16.9648L131.883 19.7578C131.785 19.7253 131.645 19.7025 131.463 19.6895C131.287 19.6699 131.134 19.6602 131.004 19.6602C130.62 19.6602 130.245 19.709 129.881 19.8066C129.523 19.9043 129.201 20.0638 128.914 20.2852C128.628 20.5 128.4 20.7865 128.23 21.1445C128.068 21.4961 127.986 21.929 127.986 22.4434V28H125.008V17.082H127.264L127.703 18.918H127.85C128.064 18.5469 128.331 18.2083 128.65 17.9023C128.976 17.5898 129.344 17.3424 129.754 17.1602C130.171 16.9714 130.62 16.877 131.102 16.877ZM144.012 22.5215C144.012 23.4329 143.888 24.2402 143.641 24.9434C143.4 25.6465 143.045 26.2422 142.576 26.7305C142.114 27.2122 141.554 27.5768 140.896 27.8242C140.245 28.0716 139.51 28.1953 138.689 28.1953C137.921 28.1953 137.215 28.0716 136.57 27.8242C135.932 27.5768 135.376 27.2122 134.9 26.7305C134.432 26.2422 134.067 25.6465 133.807 24.9434C133.553 24.2402 133.426 23.4329 133.426 22.5215C133.426 21.3105 133.641 20.2852 134.07 19.4453C134.5 18.6055 135.112 17.9674 135.906 17.5312C136.701 17.0951 137.648 16.877 138.748 16.877C139.77 16.877 140.675 17.0951 141.463 17.5312C142.257 17.9674 142.879 18.6055 143.328 19.4453C143.784 20.2852 144.012 21.3105 144.012 22.5215ZM136.463 22.5215C136.463 23.2376 136.541 23.8398 136.697 24.3281C136.854 24.8164 137.098 25.1842 137.43 25.4316C137.762 25.679 138.195 25.8027 138.729 25.8027C139.256 25.8027 139.682 25.679 140.008 25.4316C140.34 25.1842 140.581 24.8164 140.73 24.3281C140.887 23.8398 140.965 23.2376 140.965 22.5215C140.965 21.7988 140.887 21.1999 140.73 20.7246C140.581 20.2428 140.34 19.8815 140.008 19.6406C139.676 19.3997 139.243 19.2793 138.709 19.2793C137.921 19.2793 137.348 19.5495 136.99 20.0898C136.639 20.6302 136.463 21.4408 136.463 22.5215Z" fill="#7253A4"/>
</svg>
